<?xml version="1.0" standalone="no"?>
<!DOCTYPE svg PUBLIC "-//W3C//DTD SVG 20010904//EN"
 "http://www.w3.org/TR/2001/REC-SVG-20010904/DTD/svg10.dtd">
<svg version="1.0" xmlns="http://www.w3.org/2000/svg"
 width="500.000000pt" height="500.000000pt" viewBox="0 0 500.000000 500.000000"
 preserveAspectRatio="xMidYMid meet">
<metadata>
Created by potrace 1.14, written by Peter Selinger 2001-2017
</metadata>
<g transform="translate(0.000000,500.000000) scale(0.100000,-0.100000)"
fill="#000000" stroke="none">
<path d="M2330 4630 c-782 -70 -1441 -528 -1775 -1233 -55 -116 -131 -325
-121 -334 14 -14 34 10 45 54 18 71 95 255 152 361 248 467 672 832 1169 1007
465 163 1009 154 1466 -24 344 -134 675 -379 897 -663 38 -49 75 -88 83 -88
22 0 18 8 -39 84 -72 95 -231 261 -325 339 -438 364 -1006 545 -1552 497z"/>
<path d="M3614 3145 c-121 -33 -304 -142 -304 -181 0 -32 34 -24 124 29 175
103 312 134 400 92 46 -22 64 -48 72 -107 18 -127 -88 -293 -260 -410 -154
-106 -343 -149 -376 -88 -14 26 -2 48 55 98 39 34 158 112 171 112 9 0 3 -23
-21 -72 -29 -61 -31 -81 -8 -76 10 2 22 20 29 43 6 23 23 64 38 93 25 49 32
55 126 102 95 48 121 70 83 70 -17 0 -88 -20 -127 -36 -13 -5 -2 23 43 108 61
115 68 148 31 148 -26 0 -36 -16 -94 -157 l-53 -128 -92 -52 c-128 -72 -184
-116 -220 -170 -38 -57 -40 -95 -6 -128 48 -49 183 -29 325 47 303 162 482
497 335 627 -59 51 -163 65 -271 36z"/>
<path d="M4760 3073 c-65 -32 -130 -95 -130 -125 0 -12 -8 -31 -17 -42 -16
-18 -16 -19 -1 -8 14 11 23 9 58 -13 45 -29 44 -34 -10 -55 -98 -38 -144 -94
-104 -126 20 -16 119 -13 135 3 5 5 -8 7 -29 5 -42 -3 -68 10 -57 28 16 26
116 81 135 75 15 -5 20 -2 20 13 0 11 10 27 23 35 22 16 22 16 -8 11 -26 -4
-33 0 -55 32 l-24 37 34 29 c19 16 58 36 86 44 63 18 93 46 74 69 -19 23 -70
18 -130 -12z"/>
<path d="M4093 3078 c-52 -25 -32 -91 20 -67 31 14 41 44 20 64 -8 8 -15 15
-16 14 -1 0 -12 -5 -24 -11z"/>
<path d="M4386 2985 c-112 -76 -203 -254 -154 -303 40 -40 111 9 197 138 81
121 97 156 81 175 -19 23 -82 18 -124 -10z m46 -102 c-81 -91 -130 -138 -138
-130 -8 7 39 93 71 129 29 34 84 68 109 68 13 0 3 -17 -42 -67z"/>
<path d="M4021 2929 c-28 -30 -101 -200 -101 -235 0 -43 25 -74 61 -74 34 0
111 37 154 75 l30 27 -30 -20 c-38 -25 -115 -51 -132 -45 -24 10 -13 57 50
207 14 33 23 65 20 73 -8 19 -29 16 -52 -8z"/>
<path d="M4449 2788 c-7 -18 -21 -45 -30 -59 -10 -14 -16 -28 -14 -31 10 -9
-106 -225 -136 -254 l-31 -29 7 30 c8 34 66 143 103 195 23 32 21 32 -22 -10
-73 -69 -146 -184 -146 -229 0 -70 47 -81 108 -27 53 48 86 114 125 247 18 63
36 120 41 128 8 13 17 71 11 71 -1 0 -8 -15 -16 -32z"/>
<path d="M4736 2763 c-6 -14 -5 -15 5 -6 7 7 10 15 7 18 -3 3 -9 -2 -12 -12z"/>
<path d="M2502 2670 c-77 -56 -156 -172 -168 -248 -5 -35 -3 -42 19 -56 32
-21 60 -11 110 40 48 50 47 58 -5 29 -52 -30 -58 -31 -58 -5 0 66 141 240 194
240 24 0 27 2 16 15 -20 24 -63 18 -108 -15z"/>
<path d="M612 2639 c-156 -77 -438 -582 -393 -701 25 -65 111 -64 197 3 31 24
64 49 74 54 37 22 170 206 170 236 0 30 -15 23 -67 -33 -161 -176 -263 -254
-302 -229 -50 32 45 312 166 492 134 197 256 218 224 37 -12 -67 -5 -84 28
-73 30 9 44 41 44 99 1 65 -23 110 -64 125 -18 6 -32 11 -33 11 -1 0 -20 -10
-44 -21z"/>
<path d="M2820 2619 c0 -5 5 -7 10 -4 6 3 10 8 10 11 0 2 -4 4 -10 4 -5 0 -10
-5 -10 -11z"/>
<path d="M2158 2547 c-40 -40 -93 -95 -117 -122 -24 -28 -40 -41 -36 -30 60
160 69 195 58 206 -9 9 -19 10 -36 2 -43 -20 -132 -260 -114 -306 12 -33 52
-20 91 31 20 26 66 85 102 132 36 47 85 102 108 122 22 21 36 38 29 38 -7 0
-45 -33 -85 -73z"/>
<path d="M2232 2458 c-83 -158 -112 -232 -95 -249 8 -8 17 -8 30 -1 14 8 22
29 30 81 7 45 29 109 62 181 29 62 50 115 47 117 -2 2 -35 -56 -74 -129z"/>
<path d="M2573 2538 c-22 -23 -33 -47 -38 -80 -6 -42 -5 -48 18 -63 30 -19 62
-13 103 21 21 17 23 22 9 17 -11 -3 -25 -10 -32 -15 -7 -5 -22 -8 -35 -6 -27
4 -28 31 -2 89 9 20 14 44 12 53 -2 14 -9 11 -35 -16z"/>
<path d="M897 2522 c-34 -38 -11 -71 37 -52 28 10 37 28 24 53 -11 22 -41 22
-61 -1z"/>
<path d="M1671 2424 c-63 -64 -111 -108 -106 -98 36 89 65 180 61 191 -9 22
-44 15 -64 -14 -29 -42 -92 -207 -95 -248 -3 -48 20 -66 56 -42 13 9 63 67
109 129 47 62 106 132 131 156 26 23 41 42 35 42 -7 0 -64 -52 -127 -116z"/>
<path d="M1784 2368 c-40 -79 -77 -159 -84 -179 -16 -45 -9 -69 19 -62 12 3
21 6 21 7 1 0 7 35 14 77 9 48 32 114 61 177 73 156 48 140 -31 -20z"/>
<path d="M1207 2450 c-43 -27 -121 -119 -153 -181 -7 -15 -16 -44 -20 -66 -5
-31 -2 -42 15 -57 28 -25 62 -15 112 35 47 47 45 61 -4 30 -43 -26 -57 -27
-57 -1 0 31 34 91 84 150 54 63 94 92 119 86 20 -5 22 5 5 22 -19 19 -51 14
-101 -18z"/>
<path d="M836 2377 c-36 -48 -87 -165 -93 -218 -5 -41 -3 -48 23 -68 20 -16
36 -20 54 -16 32 8 126 64 148 89 11 12 4 10 -21 -7 -47 -32 -102 -51 -124
-43 -22 9 -13 54 37 170 32 77 39 101 29 112 -17 21 -25 18 -53 -19z"/>
<path d="M1268 2313 c-35 -37 -47 -112 -23 -136 9 -10 25 -17 36 -17 25 0 71
24 90 46 13 16 12 16 -18 1 -36 -19 -69 -22 -78 -8 -3 6 4 34 15 63 32 84 25
100 -22 51z"/>
<path d="M456 1908 c-38 -83 -57 -144 -48 -152 23 -23 79 24 67 56 -3 8 1 48
9 88 9 41 14 76 11 78 -3 3 -20 -29 -39 -70z"/>
<path d="M4535 1928 c-3 -7 -21 -60 -41 -118 -74 -214 -212 -459 -362 -642
-79 -97 -247 -259 -347 -335 -305 -231 -630 -366 -1010 -418 -150 -21 -490
-16 -630 9 -206 38 -383 96 -570 186 -299 146 -533 334 -743 598 -57 70 -92
100 -92 75 0 -17 123 -168 209 -256 184 -190 385 -337 606 -443 445 -215 922
-273 1399 -169 739 160 1327 687 1581 1415 19 56 35 104 35 106 0 10 -31 3
-35 -8z"/>
</g>
</svg>
